<svg xmlns="http://www.w3.org/2000/svg" viewBox="0 0 409.44 104.42"><defs><style>.cls-1{fill:#ffc92d;}.cls-2{font-size:89.99px;fill:#fff;font-family:GillSansMT-Bold, Gill Sans MT;font-weight:700;}</style></defs><title>UPNPSAsset 1</title><g id="Layer_2" data-name="Layer 2"><g id="Layer_1-2" data-name="Layer 1"><path class="cls-1" d="M46.27,25.48c-2.91,0-5.83-.18-8.73,0C30.46,26,20.69,32.88,17.7,44.38c-2.35,9.05-.14,17,7,21.64a30.55,30.55,0,0,0,23,4.09c2.67-.54,4.71-4,7.11-6.11,1.45-1.26,2.85-2.75,4.56-3.47,2.4-1,5.1-1.28,7.59-2.12,3.27-1.1,5.58-.16,6.94,2.91,1.46,3.29-.56,9.38-3,12.1a45.66,45.66,0,0,0-6.86,9.71c-2.82,5.51-7.19,8.15-13.11,8.53a60.73,60.73,0,0,1-33.7-7.38C2.93,76.38-4.59,53.62,3,39.19c2.91-5.52,7.63-11.8,13-13.82s10.62-6.47,17.85-5.54c3.7.48,7.62-.45,11.07,1.89a9.38,9.38,0,0,1,1.73,2.18Z"/><path class="cls-1" d="M65.05,35.43C61,28.86,57.21,23.29,54,17.44c-1.08-2-1.93-6-1-6.75,2.73-2.22,4.76-.38,7.12,2.34a40.12,40.12,0,0,1,10,21c.5,3.44-.37,4.89-4.46,5-7.9.19-15.76,1.41-23.66,2-1.29.09-3.85-1.08-3.81-1.38.26-1.81.59-4.44,1.84-5.14,6.71-3.79,13.71-3.58,20.62-.23.73.35,1.43.78,2.16,1.15A15,15,0,0,0,65.05,35.43Z"/><text class="cls-2" transform="translate(87.01 75.68)">UPSNP</text></g></g></svg>