<svg xmlns="http://www.w3.org/2000/svg" width="1632" height="1632" viewBox="0 0 1632 1632"><path d="M1456,1216q0-40-28-68L1220,940q-28-28-68-28-42,0-72,32,3,3,19,18.5t21.5,21.5a238.119,238.119,0,0,1,15,19q9.5,13,13,25.5a101.785,101.785,0,0,1,3.5,27.5q0,40-28,68t-68,28a101.785,101.785,0,0,1-27.5-3.5q-12.5-3.5-25.5-13a238.119,238.119,0,0,1-19-15q-6-5.5-21.5-21.5T944,1080q-33,31-33,73,0,40,28,68l206,207q27,27,68,27,40,0,68-26l147-146Q1456,1255,1456,1216ZM753,511q0-40-28-68L519,236q-28-28-68-28-39,0-68,27L236,381q-28,28-28,67,0,40,28,68L444,724q27,27,68,27,42,0,72-31-3-3-19-18.5T543.5,680a238.091,238.091,0,0,1-15-19q-9.5-13-13-25.5A101.787,101.787,0,0,1,512,608q0-40,28-68t68-28a101.787,101.787,0,0,1,27.5,3.5q12.5,3.5,25.5,13a238.091,238.091,0,0,1,19,15q6,5.5,21.5,21.5T720,584Q753,553,753,511Zm895,705q0,120-85,203l-147,146q-83,83-203,83-121,0-204-85L803,1356q-83-83-83-203,0-123,88-209l-88-88q-86,88-208,88-120,0-204-84L100,652Q16,568,16,448t85-203L248,99q83-83,203-83,121,0,204,85L861,308q83,83,83,203,0,123-88,209l88,88q86-88,208-88,120,0,204,84l208,208Q1648,1096,1648,1216Z" transform="translate(-16 -16)" fill="#fff"/></svg>