<svg xmlns="http://www.w3.org/2000/svg" width="375.195" height="493.59" viewBox="0 0 375.195 493.59">
  <g id="Group_1" data-name="Group 1" transform="translate(0 0)">
    <ellipse id="Ellipse_1" data-name="Ellipse 1" cx="89.778" cy="68.112" rx="89.778" ry="68.112" transform="matrix(0.951, -0.309, 0.309, 0.951, 162.353, 55.447)" fill="#fff"/>
    <path id="Path_2" data-name="Path 2" d="M126.514,143.938l-8.788-69.293A31.838,31.838,0,0,0,59.981,60.5L42.829,85.217C61.735,112.3,89.331,131.635,126.514,143.938Z" transform="translate(139.006 173.921)" fill="#fff"/>
    <path id="Path_3" data-name="Path 3" d="M146.325,216.878l-18.6,26.811c3.588-12.164,7.37-24.136,11.234-35.74a192.365,192.365,0,0,1-18.388-28.594A211.148,211.148,0,0,1,96.222,83.141c0-4.212.174-6.742.225-7.264a29.821,29.821,0,0,1,29.609-27.5c.734,0,1.477.034,2.225.085A29.7,29.7,0,0,1,155.72,80.245c0,.166-.008.348-.025.556,0,.225-.03,1.112-.03,2.314a153.112,153.112,0,0,0,9.442,50.544C180.272,95.236,177.891,45.1,154.378,29.332,130.174,13.1,88.9,21.588,61.9,77.974c-36.8,77.8-51.737,131.02-61.659,225.434-3.38,69.522,28.794,85.948,56.709,93.421,8.589,2.3,15.785,3.83,21.878,3.15.412.017.819.089,1.227.089a31.775,31.775,0,0,0,26.187-13.7L195.48,257.737A205.887,205.887,0,0,1,146.325,216.878Z" transform="translate(0 93.45)" fill="#fff"/>
    <path id="Path_4" data-name="Path 4" d="M104.158,100.538A264.612,264.612,0,0,1,48.6,78.979L62.36,187.327a31.839,31.839,0,1,0,63.171-8.016l-9.9-78.022a26.783,26.783,0,0,1-11.472-.751Z" transform="translate(157.736 278.348)" fill="#fff"/>
    <path id="Path_5" data-name="Path 5" d="M195.249,209.634c-62.767-17.331-92.9-49.669-109.719-80.79C68.9,97.7,67.078,66.829,67.124,56.461c0-1.32.03-2.3.047-2.9.017-.263.025-.454.03-.548a21.225,21.225,0,0,0-42.333-3.142l-.013-.008c-.034.48-.191,2.785-.191,6.593a202.745,202.745,0,0,0,23.372,92.3C69.1,188.954,110.859,230.93,184.1,250.6a21.226,21.226,0,0,0,11.149-40.962Z" transform="translate(80.049 120.104)" fill="#fff"/>
  </g>
</svg>
