<svg xmlns="http://www.w3.org/2000/svg" width="501.5" height="365" viewBox="0 0 501.5 365"><g transform="translate(-36.5 476)"><g transform="translate(27 -587)"><path d="M101.5,427q6.6-.6,8.5,3.5,2.7,2.3,2,8l-4.5,5.5-8,1L95,441.5l-1-8,4.5-5.5Z" fill="rgba(0,0,0,0)"/><path d="M233.5,112l.5,2.5h-1Z" fill="rgba(0,0,0,0.79)"/><path d="M409.5,116l.5,2.5h-1Z" fill="rgba(0,0,0,0.79)"/><path d="M232.5,118l.5,2.5h-1Z" fill="rgba(0,0,0,0.79)"/><path d="M410.5,122l.5,2.5h-1Z" fill="rgba(0,0,0,0.79)"/><path d="M231.5,124l.5,2.5h-1Z" fill="rgba(0,0,0,0.79)"/><path d="M411.5,128l.5,2.5h-1Z" fill="rgba(0,0,0,0.79)"/><path d="M230.5,130l.5,2.5h-1Z" fill="rgba(0,0,0,0.79)"/><path d="M412.5,134l.5,2.5h-1Z" fill="rgba(0,0,0,0.79)"/><path d="M229.5,136l.5,2.5h-1Z" fill="rgba(0,0,0,0.79)"/><path d="M413.5,141l.5,2.5h-1Z" fill="rgba(0,0,0,0.79)"/><path d="M228.5,142l.5,2.5h-1Z" fill="rgba(0,0,0,0.79)"/><path d="M414.5,147l.5,2.5h-1Z" fill="rgba(0,0,0,0.79)"/><path d="M227.5,148l.5,2.5h-1Z" fill="rgba(0,0,0,0.79)"/><path d="M415.5,153l.5,2.5h-1Z" fill="rgba(0,0,0,0.79)"/><path d="M226.5,154l.5,2.5h-1Z" fill="rgba(0,0,0,0.79)"/><path d="M416.5,159l.5,2.5h-1Z" fill="rgba(0,0,0,0.79)"/><path d="M225.5,160l.5,2.5h-1Z" fill="rgba(0,0,0,0.79)"/><path d="M417.5,165l.5,2.5h-1Z" fill="rgba(0,0,0,0.79)"/><path d="M224.5,166l.5,2.5h-1Z" fill="rgba(0,0,0,0.79)"/><path d="M418.5,171l.5,2.5h-1Z" fill="rgba(0,0,0,0.79)"/><path d="M223.5,172l.5,2.5h-1Z" fill="rgba(0,0,0,0.79)"/><path d="M419.5,177l.5,2.5h-1Z" fill="rgba(0,0,0,0.79)"/><path d="M222.5,178l.5,2.5h-1Z" fill="rgba(0,0,0,0.79)"/><path d="M420.5,183l.5,2.5h-1Z" fill="rgba(0,0,0,0.79)"/><path d="M221.5,185l.5,2.5h-1Z" fill="rgba(0,0,0,0.79)"/><path d="M233.5,190l.5,70.5h-1Z" fill="rgba(0,0,0,0.79)"/><path d="M259.5,190l.5,74.5-3.5,1.5v-1l2.5-.5Z" fill="rgba(0,0,0,0.79)"/><path d="M285.5,201l.5,16.5-1.5,1.5h-15v-1H285Z" fill="rgba(0,0,0,0.79)"/><path d="M356.5,201l.5,17,17,.5-16.5.5-1.5-1.5Z" fill="rgba(0,0,0,0.79)"/><path d="M244.5,263l2.5.5-2.5.5Z" fill="rgba(0,0,0,0.79)"/><path d="M249.5,264l3.5.5-3.5.5Z" fill="rgba(0,0,0,0.79)"/><path d="M312.5,270l5.5.5-5.5.5Z" fill="rgba(0,0,0,0.79)"/><path d="M323.5,271l3.5.5-3.5.5Z" fill="rgba(0,0,0,0.79)"/><path d="M334.5,273l2.5.5-2.5.5Z" fill="rgba(0,0,0,0.79)"/><path d="M201.5,289l10.5.5-10.5.5Z" fill="rgba(0,0,0,0.79)"/><path d="M217.5,290l3.5.5-3.5.5Z" fill="rgba(0,0,0,0.79)"/><path d="M223.5,291l2.5.5-2.5.5Z" fill="rgba(0,0,0,0.79)"/><path d="M476.5,292l11.5.5-11.5.5Z" fill="rgba(0,0,0,0.79)"/><path d="M180.5,296l-1,2Z" fill="rgba(0,0,0,0.79)"/><path d="M503.5,297l4,5Z" fill="rgba(0,0,0,0.79)"/><path d="M177.5,298l-2,3Z" fill="rgba(0,0,0,0.79)"/><path d="M251.5,298l2.5.5-2.5.5Z" fill="rgba(0,0,0,0.79)"/><path d="M266.5,301l2.5.5-2.5.5Z" fill="rgba(0,0,0,0.79)"/><path d="M172.5,302l-2,3Z" fill="rgba(0,0,0,0.79)"/><path d="M272.5,302l3.5.5-3.5.5Z" fill="rgba(0,0,0,0.79)"/><path d="M280.5,303l4.5.5-4.5.5Z" fill="rgba(0,0,0,0.79)"/><path d="M290.5,304l4.5.5-4.5.5Z" fill="rgba(0,0,0,0.79)"/><path d="M168.5,305l-2,3Z" fill="rgba(0,0,0,0.79)"/><path d="M301.5,305l6.5.5-6.5.5Z" fill="rgba(0,0,0,0.79)"/><path d="M314.5,306l6.5.5-6.5.5Z" fill="rgba(0,0,0,0.79)"/><path d="M327.5,307l5.5.5-5.5.5Z" fill="rgba(0,0,0,0.79)"/><path d="M164.5,308l-1,2Z" fill="rgba(0,0,0,0.79)"/><path d="M338.5,308l3.5.5-3.5.5Z" fill="rgba(0,0,0,0.79)"/><path d="M510.5,308l.5,6.5h-1Z" fill="rgba(0,0,0,0.79)"/><path d="M346.5,309l2.5.5-2.5.5Z" fill="rgba(0,0,0,0.79)"/><path d="M160.5,311l-1,2Z" fill="rgba(0,0,0,0.79)"/><path d="M157.5,313l-1,2Z" fill="rgba(0,0,0,0.79)"/><path d="M154.5,315l-1,2Z" fill="rgba(0,0,0,0.79)"/><path d="M149.5,318l-1,2Z" fill="rgba(0,0,0,0.79)"/><path d="M508.5,318l-4,5Z" fill="rgba(0,0,0,0.79)"/><path d="M368.5,319l1,2Z" fill="rgba(0,0,0,0.79)"/><path d="M502.5,323l-1,2Z" fill="rgba(0,0,0,0.79)"/><path d="M139.5,324l-1,2Z" fill="rgba(0,0,0,0.79)"/><path d="M384.5,327l.5,9.5h-1Z" fill="rgba(0,0,0,0.79)"/><path d="M130.5,329l-1,2Z" fill="rgba(0,0,0,0.79)"/><path d="M368.5,343l-2,3Z" fill="rgba(0,0,0,0.79)"/><path d="M381.5,345l-1,2Z" fill="rgba(0,0,0,0.79)"/><path d="M364.5,347l-1,2Z" fill="rgba(0,0,0,0.79)"/><path d="M47.5,348l-26,27Z" fill="rgba(0,0,0,0.79)"/><path d="M52.5,351l7,8Z" fill="rgba(0,0,0,0.79)"/><path d="M287.5,351l20.5.5-20.5.5Z" fill="rgba(0,0,0,0.79)"/><path d="M377.5,351l-5,6Z" fill="rgba(0,0,0,0.79)"/><path d="M268.5,352l3.5.5-3.5.5Z" fill="rgba(0,0,0,0.79)"/><path d="M319.5,352l6.5.5-6.5.5Z" fill="rgba(0,0,0,0.79)"/><path d="M333.5,353l7.5.5-7.5.5Z" fill="rgba(0,0,0,0.79)"/><path d="M347.5,353l4.5.5-4.5.5Z" fill="rgba(0,0,0,0.79)"/><path d="M435.5,355l-1,2Z" fill="rgba(0,0,0,0.79)"/><path d="M253.5,356l-1,2-1.5-.5Z" fill="rgba(0,0,0,0.79)"/><path d="M370.5,357l-1,2Z" fill="rgba(0,0,0,0.79)"/><path d="M256.5,358l3.5.5-3.5.5Z" fill="rgba(0,0,0,0.79)"/><path d="M264.5,359l3.5.5-3.5.5Z" fill="rgba(0,0,0,0.79)"/><path d="M272.5,360l3.5.5-3.5.5Z" fill="rgba(0,0,0,0.79)"/><path d="M279.5,361l3.5.5-3.5.5Z" fill="rgba(0,0,0,0.79)"/><path d="M287.5,362l3.5.5-3.5.5Z" fill="rgba(0,0,0,0.79)"/><path d="M296.5,363l3.5.5-3.5.5Z" fill="rgba(0,0,0,0.79)"/><path d="M305.5,364l5.5.5-5.5.5Z" fill="rgba(0,0,0,0.79)"/><path d="M350.5,364l2.5.5-2.5.5Z" fill="rgba(0,0,0,0.79)"/><path d="M317.5,365l10.5.5-10.5.5Z" fill="rgba(0,0,0,0.79)"/><path d="M337.5,365l7.5.5-7.5.5Z" fill="rgba(0,0,0,0.79)"/><path d="M407.5,370l-1,2Z" fill="rgba(0,0,0,0.79)"/><path d="M398.5,375l-1,2Z" fill="rgba(0,0,0,0.79)"/><path d="M391.5,379l-1,2Z" fill="rgba(0,0,0,0.79)"/><path d="M386.5,382l-1,2Z" fill="rgba(0,0,0,0.79)"/><path d="M9.5,386l8,9Z" fill="rgba(0,0,0,0.79)"/><path d="M366.5,394l-1,2Z" fill="rgba(0,0,0,0.79)"/><path d="M361.5,397l-1,2Z" fill="rgba(0,0,0,0.79)"/><path d="M23.5,399l9,10Z" fill="rgba(0,0,0,0.79)"/><path d="M358.5,399l-1,2Z" fill="rgba(0,0,0,0.79)"/><path d="M216.5,402l39.5.5-39.5.5Z" fill="rgba(0,0,0,0.79)"/><path d="M203.5,403l4.5.5-4.5.5Z" fill="rgba(0,0,0,0.79)"/><path d="M270.5,403l10.5.5-10.5.5Z" fill="rgba(0,0,0,0.79)"/><path d="M194.5,404l3.5.5-3.5.5Z" fill="rgba(0,0,0,0.79)"/><path d="M289.5,404l7.5.5-7.5.5Z" fill="rgba(0,0,0,0.79)"/><path d="M188.5,405l2.5.5-2.5.5Z" fill="rgba(0,0,0,0.79)"/><path d="M304.5,405l5.5.5-5.5.5Z" fill="rgba(0,0,0,0.79)"/><path d="M316.5,406l4.5.5-4.5.5Z" fill="rgba(0,0,0,0.79)"/><path d="M326.5,407l3.5.5-3.5.5Z" fill="rgba(0,0,0,0.79)"/><path d="M38.5,413l9,10Z" fill="rgba(0,0,0,0.79)"/><path d="M142.5,421l-1,2Z" fill="rgba(0,0,0,0.79)"/><path d="M137.5,424l-1,2Z" fill="rgba(0,0,0,0.79)"/><path d="M134.5,426l8.5,9.5-9-8Z" fill="rgba(0,0,0,0.79)"/><path d="M53.5,427l8,9Z" fill="rgba(0,0,0,0.79)"/><path d="M97.5,428l-2,3Z" fill="rgba(0,0,0,0.79)"/><path d="M110.5,431l1.5,2.5h-1Z" fill="rgba(0,0,0,0.79)"/><path d="M93.5,434l.5,3.5H93Z" fill="rgba(0,0,0,0.79)"/><path d="M145.5,438l-5,6Z" fill="rgba(0,0,0,0.79)"/><path d="M68.5,441l8,9Z" fill="rgba(0,0,0,0.79)"/><path d="M110.5,441l-3,4-1.5-.5Z" fill="rgba(0,0,0,0.79)"/><path d="M101.5,445l3.5.5-3.5.5Z" fill="rgba(0,0,0,0.79)"/><path d="M134.5,448l-7,8Z" fill="rgba(0,0,0,0.79)"/><path d="M83.5,455l8,9Z" fill="rgba(0,0,0,0.79)"/><path d="M121.5,460l-7,8Z" fill="rgba(0,0,0,0.79)"/><path d="M98.5,469l7,6,3.5-2.5-4.5,3.5Z" fill="rgba(0,0,0,0.79)"/><path d="M234,111H407.5l.5,1.5,1,1L421,190H409.5l-.5.5v76l-1.5,1.5a84.332,84.332,0,0,0-24,7l-.5-85H259v74.5q-.1,1.1-5.5.5L234,261V190.5l-.5-.5h-12l-.5-1.5,1-1v-6Z" fill="#fff"/><path d="M268,201h17v17H268Z" fill="#fff"/><path d="M357,201h17v17H357Z" fill="#fff"/><path d="M305,235h32v38l-10.5-2h-8l-1-1h-11l-1.5-1.5Z" fill="#fff"/><path d="M197.5,290h19q1.3,2.3,6,1l29,8,21,4,73,6,15,4,7.5,5.5q5.2,5.3,4,17L366,347l-12.5,6-12,1-1-1-32-1-1-1h-20l-1,1h-18l-13,3-4.5,2.5,5.5,1.5,22,2,1,1h7l1,1,17,1,1,1,39,1,19-4A33.383,33.383,0,0,0,378,351.5l6-11,1-13-2-8.5,90.5-26h18q11.3,1.7,16.5,9.5,3.5,4,2,13l-6.5,7.5-46,21-39,20-71,42-7,2h-10l-10-2-23-1-1-1h-15l-1-1-64-1-1,1-21,1-27,6A148.492,148.492,0,0,0,134,426v1.5l8.5,8.5,2.5,1.5L135.5,448l-26,24-5,3L10,386.5,20.5,375l28-27,11,11,4,1a519.442,519.442,0,0,0,66-29,273.056,273.056,0,0,0,52-35ZM100,427l-2,1-5,7,1,6,8,5,6-1q6-2,4-12Q110,426,100,427Z" fill="#fff"/></g></g></svg>