<svg xmlns="http://www.w3.org/2000/svg" width="1142.9" height="1000" viewBox="0 0 1142.9 1000"><path d="M1142.9,214.3h-71.5V785.7h71.5V1000H928.6V928.6H214.3V1000H0V785.7H71.4V214.3H0V0H214.3V71.4H928.6V0h214.3ZM1000,71.4v71.5h71.4V71.4Zm-928.6,0v71.5h71.5V71.4H71.4Zm71.5,857.2V857.1H71.4v71.5h71.5Zm785.7-71.5V785.7H1000V214.3H928.6V142.9H214.3v71.4H142.9V785.7h71.4v71.4H928.6Zm142.8,71.5V857.1H1000v71.5ZM714.3,357.1H928.6V785.7h-500V642.9H214.3V214.3h500ZM285.7,571.4H642.9V285.7H285.7ZM857.1,714.3V428.6H714.3V642.9H500v71.4H857.1Z" fill="#fff"/></svg>