<svg xmlns="http://www.w3.org/2000/svg" width="1518.614" height="1792" viewBox="0 0 1518.614 1792"><path d="M1519,646q18,84-4,204-87,444-565,444H906a65.085,65.085,0,0,0-44,16.5q-19,16.5-24,42.5l-4,19-55,346-2,15q-5,26-24.5,42.5T708,1792H457q-21,0-33-15t-9-36q9-56,26.5-168T468,1405q9-56,27-167.5T522,1070q5-37,43-37H696q133,2,236-21,175-39,287-144,102-95,155-246,24-70,35-133,1-6,2.5-7.5a3.473,3.473,0,0,1,3.5-1q2,.5,6,3.5Q1500,543,1519,646ZM1347,364q0,107-46,236-80,233-302,315-113,40-252,42,0,1-90,1l-90-1q-100,0-118,96-2,8-85,530-1,10-12,10H57q-22,0-36.5-16.5T9,1538L241,67a78.435,78.435,0,0,1,27.5-48Q291,0,320,0H918q34,0,97.5,13T1127,45q107,41,163.5,123T1347,364Z" transform="translate(-8.486)" fill="#fff"/></svg>