<svg xmlns="http://www.w3.org/2000/svg" width="732.329" height="897.19" viewBox="0 0 732.329 897.19">
  <path id="procrument" d="M856.128,435.812l.005,331.7a20.85,20.85,0,0,1-21.013,20.708H407.645a127.96,127.96,0,0,1,4.715,19.38H698.076a21.126,21.126,0,0,1,15.9,7.177l66.52,75.918c11.332,11.11,28.122,44.063-.827,56.11-4.822,2.013,2.924-.96,0,0-15.974,5.2-26.836-8.283-30.979-13.029l-60.235-68.742H406.828c-23.212,72.934-60.251,95.561-127.21,95.561-74.334,0-134.807-59.584-134.807-132.834S205.285,694.9,279.618,694.9c3,0-10.468.677-7.523.866V120.837H202.068c-11.6,0-21.007-14.612-21.007-26.044,0-17.575,9.409-31.389,21.007-31.389H309.384a20.859,20.859,0,0,1,21.007,20.707V704.849a135.05,135.05,0,0,1,42.587,27.445l.048-297.115-21.061-.071V332.939a20.857,20.857,0,0,1,21.006-20.7h483.16a20.854,20.854,0,0,1,21.007,20.7V435.757ZM279.619,747.659c-44.813,0-81.274,35.935-81.274,80.1s36.462,80.084,81.274,80.084,81.275-35.925,81.275-80.084S324.432,747.659,279.619,747.659Zm518.219-16.868-.122-238.977H431.345l-.075,238.977ZM824.27,369.667H404.837v65.149a19.794,19.794,0,0,1,2.183-.435H818.208c1.288,0,13.256.5,14.476.722l-8.415.005ZM562.062,519.7h104.4c11.614,0,26,14.24,21.006,36.729-2.479,11.179-9.394,20.706-21.006,20.706h-104.4c-11.6,0-17.786-9.711-21.006-20.706C534.818,535.17,550.465,519.7,562.062,519.7Z" transform="translate(-144.811 -63.404)" fill="#fff"/>
</svg>
