<svg xmlns="http://www.w3.org/2000/svg" width="1322.54" height="1262.985" viewBox="0 0 1322.54 1262.985">
  <g id="Group_4" data-name="Group 4" transform="translate(-405.58 -259.56)">
    <g id="Group_1" data-name="Group 1" transform="translate(1195.4 1202.623)">
      <path id="Path_2" data-name="Path 2" d="M450.351,311.5a226.964,226.964,0,0,0-1.271,25.056V311.5Z" transform="translate(-449.08 -311.5)" fill="#fff"/>
    </g>
    <g id="Group_2" data-name="Group 2" transform="translate(1726.849 1202.623)">
      <path id="Path_3" data-name="Path 3" d="M479.621,311.5v25.056A226.964,226.964,0,0,0,478.35,311.5Z" transform="translate(-478.35 -311.5)" fill="#fff"/>
    </g>
    <path id="Path_4" data-name="Path 4" d="M1164.158,382.118a338.279,338.279,0,0,0-27.235-23.967A440.748,440.748,0,0,0,904.88,261.92H904.7a415.131,415.131,0,0,0-45.392-2.36A430.2,430.2,0,0,0,779.417,267a418.93,418.93,0,0,0-95.868,29.232h-.182A432.882,432.882,0,0,0,581.69,358.151a338.152,338.152,0,0,0-27.235,23.967,440.527,440.527,0,0,0,4.9,643.294,340.443,340.443,0,0,0,27.6,23.786,437.222,437.222,0,0,0,96.412,57.557h.182a418.925,418.925,0,0,0,95.868,29.232,441.795,441.795,0,0,0,291.6-46.662,446.715,446.715,0,0,0,72.809-50.113c9.26-7.807,18.338-15.978,26.872-24.693a440.57,440.57,0,0,0-6.537-632.4ZM907.422,298.96h.181a400.087,400.087,0,0,1,201.359,83.158,381.789,381.789,0,0,1-65.728,42.124,443.644,443.644,0,0,0-150.52-120.2C897.617,302.229,902.52,300.594,907.422,298.96Zm-30.867,37.8a404.857,404.857,0,0,1,132.363,102.913c-41.2,16.486-85.827,25.891-132.363,27.852ZM840.242,467.437c-46.572-2.16-91.147-11.711-132.363-28.488A405.5,405.5,0,0,1,840.242,327.285Zm0,36.749V683.339h-129.1v36.314h129.1V897.843a432.912,432.912,0,0,0-135.269,31.339,403.932,403.932,0,0,1-18.338-459.73A437.6,437.6,0,0,0,840.242,504.186Zm0,430.189v110.248A406.139,406.139,0,0,1,729.3,958.6,400.668,400.668,0,0,1,840.242,934.375Zm36.313-1.126a400.413,400.413,0,0,1,136.176,25.529A406.252,406.252,0,0,1,882,1063.724c-1.834-.708-3.613-1.561-5.447-2.306Zm0-36.423V719.653h147.379V683.339H876.555v-179.1a437.288,437.288,0,0,0,155.422-34.789,404.682,404.682,0,0,1,3.45,459.185A435.079,435.079,0,0,0,876.555,896.826ZM779.417,303.681h.182c6.9,1.453,13.435,2.905,20.153,4.721A445.56,445.56,0,0,0,673.925,423.516a395.994,395.994,0,0,1-64.275-41.4A402.738,402.738,0,0,1,779.417,303.681Zm-193.37,697.4C504.7,926.821,453.684,820.06,453.684,701.5A403.966,403.966,0,0,1,581.69,406.085a423.763,423.763,0,0,0,71.718,47.571A440.7,440.7,0,0,0,671.2,944.434,426.348,426.348,0,0,0,586.047,1001.083ZM779.6,1099.311h-.182a405.693,405.693,0,0,1-165.045-74.624,396.152,396.152,0,0,1,79.89-51.2,438.194,438.194,0,0,0,141.986,109.848A396.44,396.44,0,0,1,779.6,1099.311Zm96.957,7.39v-.291c2.542-1.017,4.776-2.142,7.081-3.286,2.542.908,5.266,1.816,7.808,2.542C886.6,1106.193,881.585,1106.519,876.555,1106.7Zm104.765-18.284a358.3,358.3,0,0,1-52.292-9.442,440.159,440.159,0,0,0,118.2-105.309,384.65,384.65,0,0,1,68.27,41.942A401.392,401.392,0,0,1,981.32,1088.417Zm161.777-97.5a425.316,425.316,0,0,0-74.261-47.208,440.536,440.536,0,0,0-3.631-490.051,423.774,423.774,0,0,0,71.719-47.571,404.781,404.781,0,0,1,6.173,584.83Z" transform="translate(202.279 0)" fill="#fff"/>
    <g id="Group_3" data-name="Group 3" transform="translate(405.58 584.889)">
      <circle id="Ellipse_1" data-name="Ellipse 1" cx="191.05" cy="191.05" r="191.05" transform="translate(120.703)" fill="#fff"/>
      <circle id="Ellipse_2" data-name="Ellipse 2" cx="191.05" cy="191.05" r="191.05" transform="translate(817.469)" fill="#fff"/>
      <path id="Path_5" data-name="Path 5" d="M980.529,540.685C968,405.236,853.977,299.2,715.44,299.2S462.879,405.236,450.351,540.685a226.963,226.963,0,0,0-1.271,25.056V842.45H981.8V565.741A226.978,226.978,0,0,0,980.529,540.685Z" transform="translate(340.74 95.206)" fill="#fff"/>
      <path id="Path_6" data-name="Path 6" d="M937.029,540.685C924.5,405.236,810.477,299.2,671.94,299.2S419.379,405.236,406.851,540.685a226.978,226.978,0,0,0-1.271,25.056V842.45H938.3V565.741A226.978,226.978,0,0,0,937.029,540.685Z" transform="translate(-405.58 95.206)" fill="#fff"/>
    </g>
  </g>
</svg>
