<svg xmlns="http://www.w3.org/2000/svg" width="1071.4" height="1000.001" viewBox="0 0 1071.4 1000.001"><path d="M330.9,500q-90.4,2.8-147.9,71.4H108.3q-45.8,0-77.1-22.6T0,482.7q0-197,69.2-197,3.3,0,24.3,11.7t54.4,23.7a195.348,195.348,0,0,0,66.4,12,224.5,224.5,0,0,0,74.2-12.8,277.908,277.908,0,0,0-2.8,36.8q0,77.6,45.2,142.9ZM928.6,855.5q0,66.9-40.8,105.7T779.6,1000H291.9q-67.6,0-108.3-38.8T142.9,855.5q0-29.6,1.9-57.8a550.894,550.894,0,0,1,7.8-60.8,485.794,485.794,0,0,1,14.8-60.6,280.54,280.54,0,0,1,24-54.4A200.522,200.522,0,0,1,226,576.7q19.5-18.8,47.7-29.8t62.2-11.2q5.6,0,24,12t40.8,26.8q22.4,14.8,59.7,26.8a242.254,242.254,0,0,0,150.6,0q37.3-12,59.8-26.8t40.7-26.8q18.2-12,24-12,34,0,62.2,11.2t47.7,29.8q19.5,18.6,34.6,45.2a287.84,287.84,0,0,1,24,54.4,474.471,474.471,0,0,1,14.8,60.6,559.093,559.093,0,0,1,7.8,60.8Q928.5,825.7,928.6,855.5ZM357.1,142.9q0,59.1-41.8,101t-101,41.8q-59.2-.1-101-41.8t-41.9-101q-.1-59.3,41.9-101T214.3,0q59-.2,101,41.9t41.8,101ZM750,357.1q0,88.8-62.8,151.5T535.7,571.4q-88.7.1-151.5-62.8T321.4,357.1q0-88.6,62.8-151.5t151.5-62.7q88.7.2,151.5,62.7T750,357.1Zm321.4,125.6q0,43.5-31.2,66.1t-77,22.6H888.4Q830.9,502.8,740.5,500q45.2-65.3,45.2-142.9a277.913,277.913,0,0,0-2.8-36.8,225.085,225.085,0,0,0,74.2,12.8,195.348,195.348,0,0,0,66.4-12q33.4-12,54.5-23.7t24.2-11.7q69.2,0,69.2,197ZM1000,142.9q0,59.1-41.9,101t-101,41.8q-59.1-.1-101-41.8t-41.8-101q.1-59.3,41.8-101T857.1,0q59.3-.2,101,41.9T1000,142.9Z" transform="translate(0 0.001)" fill="#fff"/></svg>