<svg xmlns="http://www.w3.org/2000/svg" width="1056.047" height="1366.856" viewBox="0 0 1056.047 1366.856">
  <path id="fa-usd" d="M1069.016,903.863q0,116.7-112.619,200.986T663.815,1208.965v133.482q0,10.679-10.187,17.543t-26.032,6.865H474.8c-19.89-.183-35.948-11-36.219-24.408V1208.965a1009.166,1009.166,0,0,1-144.31-23.645q-69.609-16.781-114.882-33.943a867.559,867.559,0,0,1-83.756-36.612q-38.483-19.45-52.631-28.6t-19.807-13.73q-19.241-16.018-2.264-31.273l116.58-102.972q7.923-7.628,26.032-9.153,16.978-1.526,27.164,6.865l2.264,1.525a726.547,726.547,0,0,0,275.038,95.344,580.145,580.145,0,0,0,83.757,6.1q91.679,0,161.288-32.8t69.608-93.056c-.014-14.273-5.89-28.265-16.978-40.426a171.578,171.578,0,0,0-37.917-32.036q-20.939-12.967-66.213-28.6t-74.7-24.408q-29.428-8.772-90.548-24.789-44.142-12.2-69.608-19.069t-69.608-20.213q-44.142-13.348-70.74-23.645T222.4,672.749q-37.351-16.781-60.554-32.417a604.864,604.864,0,0,1-49.235-37.375q-26.033-21.739-40.181-44.24a240.984,240.984,0,0,1-23.769-50.723A183.065,183.065,0,0,1,39.037,448.5q0-105.26,110.921-184.586T438.578,161.7V24.408c-.085-6.476,3.807-12.687,10.753-17.162C455.971,2.565,465.188-.057,474.8,0H627.6q15.846,0,26.032,6.865t10.187,17.543V158.652A901.24,901.24,0,0,1,788.884,176.2q60.554,12.967,98.471,25.552a643.349,643.349,0,0,1,71.872,28.6q33.955,16.018,44.142,22.12t16.978,10.679q19.241,13.73,5.659,28.985L934.326,403.5q-9.055,11.441-26.032,12.2a49.542,49.542,0,0,1-30.56-5.339q-3.4-2.288-16.412-9.153T817.18,381q-31.9-13.634-66.213-24.408-35.087-11.06-84.323-19.832a550.955,550.955,0,0,0-96.773-8.772q-107.525,0-175.436,32.8t-67.911,84.666a72.273,72.273,0,0,0,9.621,36.612q9.621,16.781,33.389,31.654a504.962,504.962,0,0,0,44.708,25.171q20.939,10.3,63.383,23.645T546.1,583.125q26.032,7.246,79.229,20.976,59.988,15.255,91.679,24.027t86.02,26.7q54.329,17.925,85.454,32.417t70.174,38.138q39.049,23.645,59.988,48.435t35.653,58.351A176.589,176.589,0,0,1,1069.016,903.863Z" transform="translate(-12.969 0.001)" fill="#fff"/>
</svg>
