<?xml version="1.0" encoding="utf-8"?>
<!-- Generator: Adobe Illustrator 20.0.0, SVG Export Plug-In . SVG Version: 6.00 Build 0)  -->
<svg version="1.1" id="Layer_1" xmlns="http://www.w3.org/2000/svg" xmlns:xlink="http://www.w3.org/1999/xlink" x="0px" y="0px"
	 viewBox="0 0 1000 1000" style="enable-background:new 0 0 1000 1000;" xml:space="preserve">
<style type="text/css">
	.st0{fill:#FFCC00;}
	.st1{fill:#FFCC00;stroke:#FFCC00;stroke-width:21;stroke-miterlimit:10;}
</style>
<g>
	<path class="st0" d="M296.1,459.7c0-22.5,18.3-39.5,40.8-39.5l123.4-0.3l0.1-124.2c0-22.5,18.3-40.8,40.8-40.8
		c22.5,0,39.5,18.3,39.5,40.8l0.3,124l122.3-0.3c22.5,0,40.8,18.3,40.8,40.8S685.8,501,663.3,501l-122-0.1l0.3,125.2
		c0,22.5-18.3,40.8-40.8,40.8S460,648.6,460,626.1l0.1-125.3l-123.3-0.1C314.3,500.5,296.1,482.2,296.1,459.7z M907.7,431.3
		c-3.3,106-46.8,201.6-116,272.3c-1.2,1.5-1.8,3.4-3.1,4.8L507.3,978c-15.9,15.9-41.8,15.9-57.7,0c-15.9-15.9-15.9-41.8,0-57.7
		l101.1-96.9c-0.5,0.1-1,0.2-1.5,0.3l159.9-153.5c72-59.9,117.9-150.2,118-251.2h0.2l0.3-163.8c-109.7-1.6-223.1-55.8-311.9-127.1
		c-7.7,2.8-16.3,3.4-24.9,1l-3.7-0.7c-0.9-0.2-1.7-0.7-2.5-1c-88.5,71.3-201.4,125-310.9,127.1l0.7,167.3c0,2.3-0.3,4.5-0.7,6.7
		c2.8,91,42.6,172.5,105,230.1l5.6,5.3c9.4,8.2,19.1,16,29.4,23.2v5.1l110.1,105.7c15.9,15.9,15.9,41.8,0,57.7s-41.8,15.9-57.7,0
		L206,701.9c-0.5-0.5-0.6-1.1-1.1-1.6C134.9,627.2,91.8,528.2,91.7,419h1L93,227.8c-2.4-7.3-2.7-15.4-0.4-23.4
		c2.7-9.6,8.7-17.3,16.4-22.5c6.9-5.4,15.5-8.7,24.9-8.7c3.6,0,7.1,0.6,10.4,1.5l0.6-2.1c108.6,9,229.9-57.5,312-130
		c0,0,0.4,0.2,1.1,0.6c3-14.4,13.6-26.7,28.7-31l3.7-0.7c21.7-6.1,44.2,6.6,50.3,28.3c0.3,1.1,0.4,2.3,0.6,3.4
		c0.8-0.4,1.3-0.6,1.3-0.7c82,72.5,203.4,139.1,312,130l0.8,2.9c4.1-1.4,8.4-2.3,13-2.3c18.7,0,33.4,12.6,37.9,29.8
		c0.2,0.5,0.4,0.9,0.6,1.4c0.1,0.4,0.1,0.8,0.2,1.2c0,0.1,0,0.2,0.1,0.3c1.2,5.1,1.5,10.3,0.8,15.2l0.9,200.7
		C908.9,425.1,908.4,428.2,907.7,431.3z"/>
</g>
<g>
	<path class="st1" d="M-203.5,216.5l-169-168.8c-3.2-3.2-7.6-5-12.2-5h-469.5c-9.5,0-17.3,7.7-17.3,17.3v880
		c0,9.5,7.7,17.3,17.3,17.3h638.5c9.5,0,17.3-7.7,17.3-17.3V228.7C-198.4,224.1-200.2,219.8-203.5,216.5z M-371,101.6l113.6,113.6
		H-371V101.6z M-232.9,922.7h-603.9v0V77.2h431.4v155.3c0,9.5,7.7,17.3,17.3,17.3h155.3V922.7z"/>
	<polygon class="st1" points="-371,101.6 -371,215.2 -257.3,215.2 	"/>
	<path class="st1" d="M-767.8,551.7c0,128.5,104.5,233,233,233s233-104.5,233-233s-104.5-233-233-233S-767.8,423.3-767.8,551.7z
		 M-336.5,551.7c0,109.4-89,198.4-198.4,198.4s-198.4-89-198.4-198.4s89-198.4,198.4-198.4S-336.5,442.3-336.5,551.7z"/>
	<path class="st1" d="M-622.6,663.9h29.4v-98.7h34.1c7.6,0,13,0.4,16.4,1.1c4.5,1.1,9,3.1,13.4,5.9c4.4,2.8,9.4,7.8,14.9,14.9
		c5.6,7.1,12.6,17.3,21.2,30.6l29.4,46.3h37l-38.7-60.5c-7.7-11.8-15.8-21.7-24.4-29.6c-4-3.6-10-7.3-17.7-11.1
		c21.3-2.9,37.1-9.8,47.3-20.6c10.2-10.8,15.3-24.1,15.3-39.9c0-12.2-3.1-23.4-9.3-33.5c-6.2-10.1-14.4-17.2-24.7-21.1
		c-10.3-4-25.4-6-45.2-6h-98.6V663.9z M-593.2,466.1h70.4c16.5,0,28.5,3.4,36.2,10.2c7.6,6.8,11.4,15.4,11.4,25.9
		c0,7.2-2,13.8-5.9,20c-3.9,6.1-9.7,10.6-17.3,13.3c-7.6,2.8-18.1,4.2-31.5,4.2h-63.2V466.1z"/>
</g>
<g>
	<g>
		<path class="st0" d="M-1356.8,605.1c-0.7-51.6-6.8-92.7-22.9-132.1c-5.9-14.3-1.2-28,10.7-32.4c14-5.2,30.6,2,35.6,15.5
			c79.4,217.3-34.3,453.6-255,524.2c-229.5,73.4-463.1-66.7-514.5-292.1c-47.2-206.7,67.9-409.1,269.5-474.6
			c81.4-26.4,163.4-26,245.2-0.1c14.9,4.7,21.8,16.3,18,29.9c-3.7,13.2-16,19.3-31.5,15.3c-44.2-11.4-88.8-18.3-134.7-14.7
			c-94.5,7.4-174.6,45.3-237.8,115.8c-177.7,198.3-81.6,513.7,176.2,580.1c199.7,51.4,402.3-80.9,436-285.1
			C-1358.9,635.4-1357.9,615.6-1356.8,605.1z"/>
		<path class="st0" d="M-1750,599.9c0.1-18,13.8-32.7,31.7-35.2c4.6-0.7,9.8-3,13.1-6.2c65.1-64.7,129.9-129.7,195-194.5
			c4.4-4.4,5.5-8.2,4.3-14.3c-8.4-42.6-16.3-85.3-24.7-127.9c-2-10.1,0-17.9,7.3-25.2c52.8-52.6,105.4-105.4,158.2-158
			c10.3-10.3,22.2-12.7,32.8-5.2c4.7,3.3,9.2,9.4,10.2,14.9c7.9,42.7,15.1,85.6,22.2,128.4c1,6.2,3.4,8.3,9.4,9.3
			c42.6,7,85,14.6,127.6,21.6c10,1.6,15.3,7.3,18.2,16c2.9,8.7,1,16.4-5.6,22.9c-52.6,52.3-105.4,104.5-157.6,157.2
			c-11.2,11.3-22.4,14.6-37.8,11.2c-38.4-8.3-77.1-15.1-115.6-23c-5.9-1.2-9.3,0.3-13.3,4.3c-66.2,66.4-132.5,132.6-198.6,199
			c-2.9,2.9-5,7.3-5.8,11.4c-3.8,18.5-20.3,31.2-39.1,29.4C-1736,634.2-1750.2,618.3-1750,599.9z M-1459.1,308.2
			c2.3-1.8,3.7-2.6,4.7-3.6c35.3-35.2,70.6-70.4,105.5-105.9c2.7-2.7,3.8-8.6,3.3-12.7c-2-14.8-5-29.6-7.7-44.3
			c-2.3-12.6-4.7-25.2-7.2-38.2c-1.8,0.9-2.5,1-2.9,1.4c-37.1,37-74.2,74-111.1,111.3c-2.2,2.2-3.5,7-2.8,10.1
			C-1471.6,253.1-1465.5,279.8-1459.1,308.2z M-1220.2,252.2c-0.5-1-1-2-1.6-2.9c-26-4.8-52-9.4-77.8-14.6c-6.5-1.3-10.5,0.3-15,4.8
			c-33.5,33.8-67.2,67.4-100.9,101.1c-2.1,2.1-4.1,4.4-7.2,7.8c29.2,5.4,56.7,10.6,84.4,15.2c3.1,0.5,7.6-2.6,10.2-5.2
			c27.5-27.2,54.7-54.6,82.2-81.9C-1237.5,268.2-1228.8,260.3-1220.2,252.2z"/>
		<path class="st0" d="M-1716.1,331.9c41,0.4,74.9,5.6,107,20.1c3.2,1.4,6.4,2.9,9.4,4.8c11.3,7.2,15.3,19.4,10.1,29.7
			c-5.4,10.8-19.4,15.6-31.4,11.2c-15-5.4-29.7-12-45.1-15.5c-118.4-26.7-239.9,55-260.7,174.7c-21.4,123.4,57.7,235.5,181.5,257.2
			c116,20.3,232.8-63.7,251-179.9c6.6-41.9,1.8-82.1-14.5-121.1c-6.3-14.9-2.9-28.6,8.5-35.7c12.7-8,26.6-3.8,34.5,10.9
			c11.1,20.8,17.6,43.2,20.5,66.5c11.6,92.7-13.9,173.6-82.9,237.4c-76.1,70.4-166.6,91.7-265.1,59.3
			c-99.3-32.6-161.2-103.2-181-206.2c-28.8-150,75.9-291.6,227.2-310.7C-1734.9,333.1-1722.4,332.5-1716.1,331.9z"/>
		<path class="st0" d="M-1711.1,724.4c-68.9,0-126.1-53.8-130.6-122.8c-4.5-68.1,46.5-129.2,114.9-137.8c4.1-0.5,8.3-0.5,12.4-0.6
			c19-0.3,29.1,8.4,29.4,24.9c0.2,15.8-10.8,26.3-28.4,26.9c-23.2,0.8-42.8,9.5-58.6,26.6c-24.1,26.1-28,67.2-9.5,98
			c18.8,31.3,55.9,46.1,92.1,36.7c34.6-9,59.3-40.4,60.4-76.5c0.1-4.4,0.5-9,1.6-13.2c3.2-12.5,11.3-19.2,22-18.9
			c12.5,0.4,24.2,9.1,24,21.6c-0.2,15.7-1.7,32.1-6.5,47C-1605,689.2-1655.4,724.5-1711.1,724.4z"/>
	</g>
</g>
<g>
	<path class="st0" d="M-323.2,2038.1c-14,14-36.7,14-50.8,0l-174.7-174.7c-14-14-14-36.7,0-50.7l0,0c14-14,36.7-14,50.7,0
		l174.8,174.8C-309.1,2001.4-309.1,2024.1-323.2,2038.1L-323.2,2038.1L-323.2,2038.1L-323.2,2038.1z M26,1643.5
		c14,14,14,36.7,0,50.8l-343.9,343.8c-14,14-36.7,14-50.7,0l0,0c-14-14-14-36.7,0-50.7l343.9-343.9
		C-10.7,1629.5,12,1629.5,26,1643.5L26,1643.5L26,1643.5L26,1643.5z M-402.1,1642.5c61.3-45.1,101.3-117.5,101.3-199.3
		c0-136.6-111.1-247.7-247.7-247.7s-247.8,111.1-247.8,247.7c0,82.8,41,156,103.6,201c-146.6,57.7-250.8,200.5-250.8,367.3
		c0,20.5,16.7,37.2,37.2,37.2s37.2-16.7,37.2-37.2c0-176.8,143.8-320.6,320.6-320.6c1.5,0,3-0.2,4.5-0.2c0.8,0.1,1.5,0.2,2.3,0.2
		c108.7,0,205,54.4,263,137.4l53-53C-270.5,1715.9-331.5,1669.4-402.1,1642.5L-402.1,1642.5z"/>
</g>
</svg>
