<svg xmlns="http://www.w3.org/2000/svg" viewBox="0 0 817.87 979.95"><defs><style>.cls-1{fill:#fc0;}</style></defs><title>Asset 1</title><g id="Layer_2" data-name="Layer 2"><g id="Layer_1-2" data-name="Layer 1"><path class="cls-1" d="M205.07,449.73c0-22.5,18.3-39.5,40.8-39.5l123.4-.3.1-124.2a40.84,40.84,0,0,1,40.8-40.8c22.5,0,39.5,18.3,39.5,40.8l.3,124,122.3-.3a40.8,40.8,0,1,1,0,81.6l-122-.1.3,125.2a40.8,40.8,0,1,1-81.6,0l.1-125.3-123.3-.1A41.06,41.06,0,0,1,205.07,449.73Zm611.6-28.4a406,406,0,0,1-116,272.3c-1.2,1.5-1.8,3.4-3.1,4.8L416.27,968a40.8,40.8,0,1,1-57.7-57.7l101.1-96.9-1.5.3,159.9-153.5a326.41,326.41,0,0,0,118-251.2h.2l.3-163.8c-109.7-1.6-223.1-55.8-311.9-127.1a40.53,40.53,0,0,1-24.9,1l-3.7-.7a18.61,18.61,0,0,1-2.5-1c-88.5,71.3-201.4,125-310.9,127.1l.7,167.3a37.13,37.13,0,0,1-.7,6.7,325.87,325.87,0,0,0,105,230.1l5.6,5.3a348.5,348.5,0,0,0,29.4,23.2v5.1l110.1,105.7a40.8,40.8,0,0,1-57.7,57.7L115,691.93c-.5-.5-.6-1.1-1.1-1.6A405.87,405.87,0,0,1,.67,409h1L2,217.83a39.62,39.62,0,0,1-.4-23.4A40.2,40.2,0,0,1,18,171.93a40.26,40.26,0,0,1,24.9-8.7,39.59,39.59,0,0,1,10.4,1.5l.6-2.1c108.6,9,229.9-57.5,312-130,0,0,.4.2,1.1.6a40.74,40.74,0,0,1,28.7-31l3.7-.7a40.81,40.81,0,0,1,50.3,28.3c.3,1.1.4,2.3.6,3.4.8-.4,1.3-.6,1.3-.7,82,72.5,203.4,139.1,312,130l.8,2.9a39.9,39.9,0,0,1,13-2.3c18.7,0,33.4,12.6,37.9,29.8.2.5.4.9.6,1.4s.1.8.2,1.2a.37.37,0,0,0,.1.3A41.27,41.27,0,0,1,817,211l.9,200.7A42.76,42.76,0,0,1,816.67,421.33Z"/></g></g></svg>