<svg xmlns="http://www.w3.org/2000/svg" width="512" height="426.668" viewBox="0 0 512 426.668"><path d="M453.332,426.668H58.668A58.717,58.717,0,0,1,0,368V101.332A58.714,58.714,0,0,1,58.668,42.668h128a16,16,0,0,1,0,32h-128A26.7,26.7,0,0,0,32,101.332V368a26.705,26.705,0,0,0,26.668,26.668H453.332A26.705,26.705,0,0,0,480,368V101.332a26.7,26.7,0,0,0-26.668-26.664h-128a16,16,0,0,1,0-32h128A58.714,58.714,0,0,1,512,101.332V368A58.717,58.717,0,0,1,453.332,426.668Zm0,0" fill="#fff"/><path d="M304,117.332H208A37.373,37.373,0,0,1,170.668,80V37.332A37.373,37.373,0,0,1,208,0h96a37.373,37.373,0,0,1,37.332,37.332V80A37.373,37.373,0,0,1,304,117.332ZM208,32a5.334,5.334,0,0,0-5.332,5.332V80A5.331,5.331,0,0,0,208,85.332h96A5.331,5.331,0,0,0,309.332,80V37.332A5.334,5.334,0,0,0,304,32Zm0,0" fill="#fff"/><path d="M160,256a53.334,53.334,0,1,1,53.332-53.332A53.406,53.406,0,0,1,160,256Zm0-74.668a21.334,21.334,0,1,0,21.332,21.336A21.368,21.368,0,0,0,160,181.332Zm0,0" fill="#fff"/><path d="M240,362.668a16.006,16.006,0,0,1-16-16V336a26.705,26.705,0,0,0-26.668-26.668H122.668A26.705,26.705,0,0,0,96,336v10.668a16,16,0,0,1-32,0V336a58.717,58.717,0,0,1,58.668-58.668h74.664A58.717,58.717,0,0,1,256,336v10.668A16.006,16.006,0,0,1,240,362.668Zm0,0" fill="#fff"/><path d="M432,192H314.668a16,16,0,0,1,0-32H432a16,16,0,0,1,0,32Zm0,0" fill="#fff"/><path d="M432,277.332H314.668a16,16,0,0,1,0-32H432a16,16,0,0,1,0,32Zm0,0" fill="#fff"/><path d="M432,362.668H314.668a16,16,0,0,1,0-32H432a16,16,0,0,1,0,32Zm0,0" fill="#fff"/></svg>