<svg xmlns="http://www.w3.org/2000/svg" viewBox="0 0 980 853.2"><defs><style>.cls-1{fill:#fc0;}</style></defs><title>personAsset 1</title><g id="Layer_2" data-name="Layer 2"><g id="Layer_1-2" data-name="Layer 1"><path class="cls-1" d="M620.3,842.6a36,36,0,0,1-50.8,0L394.8,667.9a35.85,35.85,0,0,1,0-50.7h0a35.85,35.85,0,0,1,50.7,0L620.3,792a35.55,35.55,0,0,1,0,50.6ZM969.5,448a36,36,0,0,1,0,50.8L625.6,842.6a35.85,35.85,0,0,1-50.7,0h0a35.85,35.85,0,0,1,0-50.7L918.8,448a35.85,35.85,0,0,1,50.7,0Zm-428.1-1c61.3-45.1,101.3-117.5,101.3-199.3C642.7,111.1,531.6,0,395,0S147.2,111.1,147.2,247.7c0,82.8,41,156,103.6,201C104.2,506.4,0,649.2,0,816a37.2,37.2,0,1,0,74.4,0c0-176.8,143.8-320.6,320.6-320.6,1.5,0,3-.2,4.5-.2a17.86,17.86,0,0,0,2.3.2c108.7,0,205,54.4,263,137.4l53-53A399.53,399.53,0,0,0,541.4,447Z"/></g></g></svg>