<svg class="icon" style="width: 1em; height: 1em;vertical-align: middle;fill: currentColor;overflow: hidden;" viewBox="0 0 1024 1024" version="1.1" xmlns="http://www.w3.org/2000/svg"><path d="M856.128153 435.811784l0.005117 331.697541c0 11.444657-9.398044 20.707624-21.012569 20.707624L407.644769 788.216949c2.01796 6.309706 3.676739 12.70537 4.715395 19.380396l285.7163 0c6.114255 0 11.920494 2.62785 15.899108 7.17747l66.520019 75.918064c11.332093 11.110035 28.122501 44.062542-0.826831 56.109925-4.821819 2.012843 2.923586-0.959861 0 0-15.97381 5.204535-26.836205-8.28264-30.978549-13.028735l-60.234873-68.741617L406.828171 865.032452c-23.211654 72.934103-60.251246 95.561449-127.210263 95.561449-74.333986 0-134.807289-59.58405-134.807289-132.834354 0-73.260537 60.474326-132.86403 134.807289-132.86403 2.99931 0-10.468422 0.677429-7.523347 0.865717L272.09456 120.837112l-70.02689 0c-11.597129 0-21.007453-14.611789-21.007453-26.044166 0-17.575284 9.4093-31.388894 21.007453-31.388894l107.316168 0c11.602246 0 21.007453 9.271154 21.007453 20.706601l0 620.738563c15.97381 6.437619 30.353308 15.813151 42.586934 27.445072l0.048095-297.114908-21.060665-0.070608 0-102.169961c0-11.432377 9.404184-20.703531 21.00643-20.703531l483.160161 0c11.608386 0 21.007453 9.271154 21.007453 20.703531 0 0 0 60.520375 0 84.700077 0 10.546194 0 18.117636 0 18.117636L856.128153 435.811784zM279.61893 747.659231c-44.812625 0-81.274048 35.935444-81.274048 80.101339 0 44.157709 36.462446 80.083943 81.274048 80.083943 44.812625 0 81.275072-35.925211 81.275072-80.083943C360.894002 783.594675 324.431555 747.659231 279.61893 747.659231zM797.837562 730.791052l-0.121773-238.97679L431.34454 491.814262l-0.074701 238.97679L797.837562 730.791052zM824.269561 369.667318l-419.432745 0 0 65.148789c0.75213-0.080841 1.409093-0.434905 2.182712-0.434905L818.208519 434.381202c1.288343 0 13.255908 0.503467 14.475689 0.722454l-8.414647 0.005117L824.269561 369.667318zM562.061674 519.704472l104.396675 0c11.613502 0 25.998117 14.240329 21.00643 36.728506-2.479471 11.178597-9.393951 20.705578-21.00643 20.705578L562.061674 577.138556c-11.597129 0-17.786085-9.711176-21.00643-20.705578C534.818193 535.169699 550.464545 519.704472 562.061674 519.704472z" /></svg>