<?xml version="1.0"?>
<svg xmlns="http://www.w3.org/2000/svg" xmlns:xlink="http://www.w3.org/1999/xlink" version="1.1" id="Capa_1" x="0px" y="0px" viewBox="0 0 497.273 497.273" style="enable-background:new 0 0 497.273 497.273;" xml:space="preserve" width="512px" height="512px"><g><g>
	<path d="M448.139,308.663c7.097-6.796,11.417-14.625,11.417-23.267c0-26.593-37.737-46.649-87.784-46.649   c-50.048,0-87.784,20.057-87.784,46.649c0,8.645,4.321,16.475,11.421,23.272c-26.502,36.235-46.553,81.119-46.553,108.72   c0,52.042,70.874,79.886,122.923,79.886c52.042,0,122.917-27.843,122.917-79.886C494.696,389.785,474.64,344.898,448.139,308.663z    M414.885,426.236c-3.868,7.826-11.678,12.684-20.389,12.684H378.38l0.002,5.806c0,0.973-0.585,1.857-1.485,2.231   c-0.9,0.373-1.938,0.163-2.627-0.527l-14.112-14.112c-0.94-0.941-0.94-2.466,0-3.406l14.112-14.112   c0.683-0.689,1.721-0.9,2.621-0.528c0.9,0.374,1.483,1.249,1.483,2.222l0.002,5.816h16.121c2.344,0,4.444-1.314,5.491-3.422   c1.03-2.093,0.787-4.566-0.641-6.423l-25.579-33.325c-2.311-3.009-7.388-3.025-9.716,0l-25.58,33.325   c-1.403,1.841-1.654,4.355-0.632,6.423c1.022,2.084,3.179,3.422,5.49,3.422c4.59,0,8.305,3.714,8.305,8.305   c0,4.59-3.714,8.305-8.305,8.305c-8.588,0-16.593-4.98-20.389-12.684c-3.795-7.68-2.871-17.064,2.36-23.876l25.58-33.333   c8.556-11.135,27.509-11.127,36.058-0.008l25.579,33.333C417.829,409.262,418.737,418.418,414.885,426.236z M371.772,307.123   c-39.001,0-62.87-14.071-62.87-21.727c0-7.664,23.868-21.735,62.87-21.735c39.001,0,62.87,14.071,62.87,21.735   C434.641,293.052,410.773,307.123,371.772,307.123z" data-original="#000000" class="active-path" data-old_color="#000000" fill="#FDFDFD"/>
	<path d="M118.727,109.722c30.299,0,54.865-24.558,54.865-54.857c0-30.3-24.566-54.865-54.865-54.865   C88.428,0,63.862,24.565,63.862,54.865C63.862,85.165,88.428,109.722,118.727,109.722z" data-original="#000000" class="active-path" data-old_color="#000000" fill="#FDFDFD"/>
	<path d="M195.71,169.53v-15.243c0-13.065-7.235-24.873-18.873-30.802c-5.838-2.977-12.401-4.55-18.971-4.55   c-4.501,0-8.953,0.722-13.227,2.141c-4.088,1.368-7.798,3.527-11.241,6.042h-29.34c-3.44-2.512-7.146-4.67-11.227-6.034   c-4.29-1.428-8.743-2.149-13.244-2.149c-6.569-0.008-13.13,1.573-18.978,4.558c-11.63,5.92-18.864,17.728-18.864,30.794v15.27   L3.807,286.174c-4.258,13.082,2.895,27.136,15.985,31.394c7.794,2.561,15.909,0.968,22.125-3.463   c0.682,10.196,7.276,18.74,16.439,22.207v135.753c0,13.918,11.289,25.207,25.206,25.207c13.925,0,25.207-11.281,25.207-25.207   V338.03h19.918v134.035c0,13.926,11.281,25.207,25.206,25.207c13.926,0,25.207-11.281,25.207-25.207V336.312   c9.141-3.459,15.722-11.968,16.431-22.134c4.167,2.958,9.2,4.624,14.419,4.624c2.555,0,5.158-0.397,7.713-1.233   c13.09-4.25,20.243-18.313,15.985-31.394L195.71,169.53z M58.356,154.287c0-6.756,3.787-12.936,9.805-16.001   c3.576-1.825,7.494-2.749,11.427-2.741c2.685,0,5.377,0.421,7.973,1.289c6.399,2.141,11.67,6.756,14.63,12.814l8.079,17.029   l0.053,55.856H58.356V154.287z M58.356,255.753h51.999l0.016,16.61H58.356V255.753z M67.358,321.421   c-4.971,0-9.002-4.032-9.002-9.011v-6.828h52.048l0.015,15.839H67.358z M179.1,312.41c0,4.979-4.032,9.011-9.002,9.011h-43.07   l-0.015-15.839H179.1V312.41z M179.1,272.363h-52.12l-0.016-16.61H179.1V272.363z M179.1,222.534h-52.167l-0.055-55.758   l8.386-17.127c2.96-6.059,8.232-10.673,14.632-12.814c2.594-0.868,5.287-1.289,7.97-1.289c3.936,0,7.852,0.916,11.428,2.741   c6.018,3.065,9.806,9.245,9.806,16.001V222.534z" data-original="#000000" class="active-path" data-old_color="#000000" fill="#FDFDFD"/>
</g></g> </svg>
