<svg xmlns="http://www.w3.org/2000/svg" viewBox="0 0 693.97 935.55"><defs><style>.cls-1{fill:#fc0;stroke:#fc0;stroke-miterlimit:10;stroke-width:21px;}</style></defs><title>registerdAsset 3</title><g id="Layer_2" data-name="Layer 2"><g id="Layer_1-2" data-name="Layer 1"><path class="cls-1" d="M678.41,184.34l-169-168.8a17.3,17.3,0,0,0-12.19-5H27.76A17.25,17.25,0,0,0,10.5,27.75v880a17.25,17.25,0,0,0,17.26,17.26H666.21a17.25,17.25,0,0,0,17.26-17.26V196.55A17.29,17.29,0,0,0,678.41,184.34ZM510.91,69.41,624.56,183.06H510.91ZM649,890.54H45V45H476.4v155.3a17.25,17.25,0,0,0,17.25,17.26H649Z"/><polygon class="cls-1" points="510.91 69.41 510.91 183.06 624.56 183.06 510.91 69.41"/><path class="cls-1" d="M114,519.54c0,128.46,104.5,233,233,233s233-104.49,233-233-104.5-233-233-233S114,391.08,114,519.54Zm431.39,0C545.42,629,456.41,718,347,718S148.55,629,148.55,519.54,237.56,321.1,347,321.1,545.42,410.13,545.42,519.54Z"/><path class="cls-1" d="M259.24,631.7h29.42V533h34.12q11.37,0,16.38,1.06a44.17,44.17,0,0,1,13.42,5.91q6.6,4.25,14.94,14.86t21.23,30.64l29.42,46.26h37l-38.67-60.51a152.93,152.93,0,0,0-24.42-29.57q-6.07-5.46-17.74-11.07,32-4.4,47.32-20.63T437,470a63.11,63.11,0,0,0-9.25-33.52q-9.25-15.17-24.72-21.15t-45.2-6H259.24Zm29.42-197.77H359q24.72,0,36.17,10.16T406.65,470a36.14,36.14,0,0,1-5.91,20q-5.92,9.18-17.29,13.35t-31.54,4.16H288.66Z"/></g></g></svg>