<svg xmlns="http://www.w3.org/2000/svg" width="282.607" height="279.736" viewBox="0 0 282.607 279.736"><g transform="translate(-0.001 -4.737)"><path d="M18.555,106.845a68.8,68.8,0,0,0,6.154,14.613l-7.428,9.368a7.689,7.689,0,0,0,.576,10.186l12.794,12.794a7.655,7.655,0,0,0,10.186.576l9.307-7.367a67.621,67.621,0,0,0,15.189,6.427l1.395,11.975a7.669,7.669,0,0,0,7.61,6.791h18.1a7.669,7.669,0,0,0,7.61-6.791l1.334-11.551a68.4,68.4,0,0,0,16.28-6.579l9,7.124a7.689,7.689,0,0,0,10.186-.576l12.794-12.794a7.655,7.655,0,0,0,.576-10.186l-7-8.883a66.812,66.812,0,0,0,6.7-16.007l10.793-1.243a7.669,7.669,0,0,0,6.791-7.61v-18.1a7.669,7.669,0,0,0-6.791-7.61l-10.641-1.243a67.244,67.244,0,0,0-6.427-15.825l6.548-8.277a7.689,7.689,0,0,0-.576-10.186L136.851,23.109a7.655,7.655,0,0,0-10.186-.576L118.631,28.9a67.472,67.472,0,0,0-16.644-6.973l-1.213-10.4a7.669,7.669,0,0,0-7.61-6.791h-18.1a7.669,7.669,0,0,0-7.61,6.791l-1.213,10.4a67.19,67.19,0,0,0-17.068,7.215l-8.337-6.609a7.689,7.689,0,0,0-10.186.576L17.858,35.9a7.655,7.655,0,0,0-.576,10.186l6.973,8.822a65.951,65.951,0,0,0-6.306,15.977L6.792,72.162A7.669,7.669,0,0,0,0,79.771v18.1a7.669,7.669,0,0,0,6.791,7.61ZM84.13,57.883A29.923,29.923,0,1,1,54.207,87.806,29.966,29.966,0,0,1,84.13,57.883Z" fill="#fff"/><path d="M596.089,308.52l-9.55-8.064a7.554,7.554,0,0,0-10.065.273L571.2,305.67a54.525,54.525,0,0,0-14.067-4.548l-1.485-7.276a7.624,7.624,0,0,0-8.065-6.063l-12.46,1.061a7.592,7.592,0,0,0-6.943,7.306l-.242,7.4a54.674,54.674,0,0,0-13.431,7.064l-6.306-4.184a7.575,7.575,0,0,0-9.974,1.425l-8.064,9.61a7.554,7.554,0,0,0,.272,10.065l5.518,5.881a56.508,56.508,0,0,0-4.062,13.461l-7.882,1.607a7.624,7.624,0,0,0-6.063,8.065L479.006,369a7.592,7.592,0,0,0,7.306,6.943l8.519.273a55.675,55.675,0,0,0,6.033,11.52l-4.759,7.185a7.575,7.575,0,0,0,1.425,9.974l9.55,8.064a7.554,7.554,0,0,0,10.065-.273l6.245-5.851a54.74,54.74,0,0,0,12.824,4.184l1.728,8.549a7.624,7.624,0,0,0,8.064,6.063l12.46-1.061a7.591,7.591,0,0,0,6.943-7.306l.273-8.368a56.036,56.036,0,0,0,12.824-6.488l6.882,4.548a7.575,7.575,0,0,0,9.974-1.425l8.064-9.55a7.555,7.555,0,0,0-.273-10.065l-5.548-5.881a54.6,54.6,0,0,0,4.366-13.522l7.579-1.546a7.624,7.624,0,0,0,6.063-8.065l-1.061-12.46a7.591,7.591,0,0,0-7.306-6.943l-7.61-.243a55.061,55.061,0,0,0-6.336-12.491l4.153-6.245A7.536,7.536,0,0,0,596.089,308.52Zm-46.96,72.033a24.492,24.492,0,1,1,22.343-26.467A24.5,24.5,0,0,1,549.129,380.552Z" transform="translate(-333.029 -197.219)" fill="#fff"/><path d="M189.18,602.907a7.574,7.574,0,0,0-6.791,7.458l-.091,7.67a7.556,7.556,0,0,0,6.609,7.61l5.639.727a43.741,43.741,0,0,0,4,9.793l-3.638,4.487a7.559,7.559,0,0,0,.455,10.065l5.366,5.487a7.569,7.569,0,0,0,10.065.7l4.517-3.486a44.283,44.283,0,0,0,10.065,4.4l.606,5.821a7.574,7.574,0,0,0,7.458,6.791l7.67.091a7.556,7.556,0,0,0,7.61-6.609l.7-5.518a45.544,45.544,0,0,0,10.914-4.244l4.244,3.426a7.559,7.559,0,0,0,10.066-.455l5.487-5.366a7.569,7.569,0,0,0,.7-10.065l-3.245-4.214a43.967,43.967,0,0,0,4.608-10.611l5.033-.515a7.574,7.574,0,0,0,6.791-7.458l.091-7.67a7.555,7.555,0,0,0-6.609-7.61l-4.912-.637a45.674,45.674,0,0,0-4.153-10.611L281.5,588.6a7.559,7.559,0,0,0-.455-10.065l-5.366-5.487a7.569,7.569,0,0,0-10.066-.7l-3.669,2.819a44.589,44.589,0,0,0-11.035-4.79l-.485-4.76a7.573,7.573,0,0,0-7.458-6.791l-7.67-.091a7.556,7.556,0,0,0-7.61,6.609l-.606,4.73a45.789,45.789,0,0,0-11.429,4.669l-3.79-3.092a7.56,7.56,0,0,0-10.066.455l-5.518,5.4a7.569,7.569,0,0,0-.7,10.065l3.244,4.184a44.373,44.373,0,0,0-4.335,10.611Zm49.508-8.671A19.95,19.95,0,1,1,218.5,613.942,19.966,19.966,0,0,1,238.687,594.236Z" transform="translate(-127.029 -386.042)" fill="#fff"/></g></svg>