<svg xmlns="http://www.w3.org/2000/svg" viewBox="0 0 970.21 970.95"><defs><style>.cls-1{fill:#fc0;}</style></defs><title>targetAsset 2</title><g id="Layer_2" data-name="Layer 2"><g id="Layer_1-2" data-name="Layer 1"><path class="cls-1" d="M756.81,576.1c-.7-51.56-6.8-92.72-22.92-132.06-5.86-14.32-1.18-28,10.67-32.39,14-5.23,30.63,2,35.56,15.48,79.39,217.26-34.29,453.58-255,524.18C295.56,1024.73,62,884.58,10.55,659.18-36.68,452.43,78.47,250.06,280,184.56c81.36-26.44,163.43-26,245.15-.08,14.95,4.75,21.79,16.33,18,29.94-3.66,13.16-16,19.32-31.49,15.35C467.49,218.4,422.91,211.47,377,215.08c-94.53,7.44-174.58,45.31-237.77,115.83C-38.4,529.18,57.7,844.6,315.45,911c199.69,51.42,402.34-80.95,436-285.09C754.67,606.39,755.72,586.54,756.81,576.1Z"/><path class="cls-1" d="M363.58,570.9c.14-18,13.78-32.68,31.71-35.23a24.54,24.54,0,0,0,13.07-6.23Q506,432.36,603.36,335c4.4-4.38,5.49-8.24,4.3-14.26-8.42-42.61-16.25-85.34-24.7-127.95-2-10.07,0-17.86,7.32-25.17q79.25-78.84,158.18-158C758.75-.71,770.62-3.1,781.3,4.31c4.69,3.26,9.22,9.38,10.24,14.87,7.93,42.71,15.13,85.56,22.15,128.43,1,6.16,3.42,8.28,9.44,9.27,42.55,7,85,14.6,127.56,21.55,10,1.63,15.27,7.31,18.2,16s1,16.36-5.57,22.85c-52.6,52.34-105.42,104.46-157.59,157.22-11.17,11.3-22.37,14.58-37.81,11.23-38.38-8.33-77.09-15.14-115.58-23-5.91-1.21-9.33.34-13.31,4.33q-99.25,99.56-198.62,199a23.6,23.6,0,0,0-5.8,11.37c-3.82,18.49-20.34,31.17-39.12,29.4C377.58,605.19,363.44,589.25,363.58,570.9ZM654.5,279.18a54.94,54.94,0,0,0,4.72-3.61c35.27-35.23,70.62-70.37,105.55-105.93,2.69-2.74,3.84-8.58,3.29-12.65-2-14.85-5-29.57-7.68-44.32-2.31-12.63-4.73-25.24-7.16-38.21-1.84.89-2.52,1-2.94,1.45q-55.63,55.53-111.06,111.27c-2.19,2.21-3.47,7-2.82,10.07C642,224.08,648.15,250.79,654.5,279.18Zm238.93-56-1.55-2.95c-26-4.81-52-9.38-77.85-14.61-6.49-1.31-10.52.27-15,4.82-33.49,33.84-67.24,67.43-100.89,101.11C696,313.66,694,316,691,319.31c29.17,5.35,56.72,10.64,84.39,15.17,3.08.5,7.56-2.59,10.21-5.2,27.51-27.16,54.72-54.63,82.16-81.88C876.07,239.1,884.84,231.23,893.43,223.16Z"/><path class="cls-1" d="M397.47,302.9c41,.4,74.92,5.63,107,20.06a73.22,73.22,0,0,1,9.38,4.78c11.26,7.18,15.31,19.36,10.08,29.71-5.44,10.76-19.45,15.57-31.41,11.22-15-5.44-29.71-12-45.14-15.5-118.4-26.73-239.9,55-260.67,174.73-21.42,123.44,57.67,235.53,181.45,257.16,116,20.28,232.79-63.67,251-179.87,6.58-41.94,1.81-82.08-14.54-121.07-6.26-14.93-2.86-28.6,8.51-35.72,12.72-8,26.62-3.79,34.46,10.94,11.08,20.81,17.63,43.24,20.54,66.5,11.62,92.74-13.95,173.65-82.86,237.4-76.11,70.41-166.56,91.68-265.05,59.31C220.92,789.92,159,719.31,139.2,616.3c-28.77-150,75.91-291.56,227.17-310.73C378.72,304,391.19,303.42,397.47,302.9Z"/><path class="cls-1" d="M402.48,695.38c-68.91,0-126.1-53.78-130.63-122.8-4.47-68.06,46.52-129.22,114.94-137.78a114,114,0,0,1,12.45-.61c19-.28,29.11,8.37,29.37,24.92.25,15.83-10.82,26.28-28.43,26.89-23.17.8-42.81,9.51-58.56,26.58-24.07,26.1-28,67.17-9.48,98,18.8,31.35,55.92,46.13,92.13,36.7,34.62-9,59.29-40.35,60.38-76.5a61.22,61.22,0,0,1,1.61-13.24c3.19-12.48,11.32-19.23,22-18.91,12.47.37,24.22,9.12,24,21.59-.24,15.73-1.65,32.15-6.48,47C508.62,660.16,458.16,695.4,402.48,695.38Z"/></g></g></svg>