<svg xmlns="http://www.w3.org/2000/svg" width="238.687" height="238.701" viewBox="0 0 238.687 238.701">
  <path id="iconfinder_thefreeforty_target_1243705" d="M183.821,101.146c-3.221.805-4.832,4.832-3.221,8.054a79.382,79.382,0,0,1,5.637,30.6c0,48.321-39.462,86.978-86.978,86.978S12.28,188.124,12.28,139.8A86.617,86.617,0,0,1,99.259,52.825a107.255,107.255,0,0,1,27.382,4.027,5.863,5.863,0,0,0,3.221-11.275,97.354,97.354,0,0,0-30.6-4.832A99.059,99.059,0,1,0,198.317,139.8a106.081,106.081,0,0,0-6.443-35.436C191.069,101.951,187.042,100.341,183.821,101.146ZM99.259,119.669a6.352,6.352,0,0,0,6.443-6.443c0-4.027-2.416-6.443-6.443-6.443A32.214,32.214,0,1,0,131.473,139a6.352,6.352,0,0,0-6.443-6.443c-4.027,0-5.637,4.027-5.637,7.248a20.134,20.134,0,1,1-20.134-20.134Zm29.8-31.409c1.611-3.221,0-6.443-3.221-8.054-8.054-4.027-17.718-5.637-26.577-5.637-36.241,0-66.039,28.993-66.039,65.234a66.039,66.039,0,1,0,132.078,0c0-9.664-1.611-18.523-5.637-26.577-1.611-3.221-4.832-4.832-8.054-3.221s-4.027,4.832-3.221,8.054a53.155,53.155,0,0,1,4.832,21.745A53.959,53.959,0,1,1,99.259,85.844,47.95,47.95,0,0,1,121,90.676,6.26,6.26,0,0,0,129.057,88.26ZM238.585,47.993c-.805-2.416-2.416-4.027-4.832-4.027l-33.02-5.637L195.1,5.309c0-2.416-1.611-4.027-4.027-4.832a6.263,6.263,0,0,0-6.443,1.611L145.164,41.55c-1.611,1.611-2.416,3.221-1.611,5.637L150,81.012,99.259,131.75h-.805a8.859,8.859,0,1,0,8.859,8.859h0l51.543-51.543,33.02,6.443h.805a6.152,6.152,0,0,0,4.027-1.611l39.462-39.462A5.4,5.4,0,0,0,238.585,47.993Zm-82.146-.805,28.993-28.993,4.027,22.55L161.271,68.932Zm35.436,35.436L170.13,78.6l28.187-28.187,21.745,4.027Z" transform="translate(-0.2 -0.161)" fill="#fff"/>
</svg>
